<svg xmlns="http://www.w3.org/2000/svg" xmlns:xlink="http://www.w3.org/1999/xlink" width="16" height="14" version="1.1" viewBox="0 0 16 14"><title>D0794816-7C6E-4B75-8496-76A2BC511878</title><desc>Created with sketchtool.</desc><g id="Excel-Add-In" fill="none" fill-rule="evenodd" stroke="none" stroke-width="1"><g id="New_ExcelAddin" stroke="#8C9CAF" transform="translate(-449.000000, -1185.000000)"><g id="Recent-Imports" transform="translate(433.000000, 902.000000)"><g id="excel-addin/import-short-copy-2" transform="translate(0.000000, 265.000000)"><g id="excel-addin/import-short"><g id="icon/file/table/color" transform="translate(16.000000, 17.000000)"><g id="Group" transform="translate(1.000000, 2.000000)"><path id="Stroke-3" stroke-linecap="square" d="M13,6 L-1.44328993e-15,6" transform="translate(6.500000, 6.000000) rotate(180.000000) translate(-6.500000, -6.000000)"/><path id="Stroke-3" stroke-linecap="square" d="M13,9 L0,9" transform="translate(6.500000, 9.000000) rotate(180.000000) translate(-6.500000, -9.000000)"/><path id="Stroke-3" stroke-linecap="square" d="M13,3 L0,3" transform="translate(6.500000, 3.000000) rotate(180.000000) translate(-6.500000, -3.000000)"/><polygon id="Rectangle-2" stroke-linejoin="round" points="0 0 14 0 14 12 0 12" transform="translate(7.000000, 6.000000) rotate(180.000000) translate(-7.000000, -6.000000)"/><path id="Path-5" d="M4,-2.84217094e-14 L4,12" transform="translate(4.000000, 6.000000) rotate(180.000000) translate(-4.000000, -6.000000)"/></g></g></g></g></g></g></g></svg>